# Hierarchical Translation and Rotation (.htr) file
# Generated by EVaRT
[Header]
FileType htr
DataType HTRS
FileVersion 1
NumSegments 23
NumFrames 4
DataFrameRate 120
EulerRotationOrder ZYX
CalibrationUnits mm
RotationUnits Degrees
GlobalAxisofGravity Y
BoneLengthAxis Y
ScaleFactor 1
[SegmentNames&Hierarchy]
#CHILD            PARENT
DaveRoot          GLOBAL
Spine1            DaveRoot
Spine2            Spine1
Spine3            Spine2
Spine4            Spine3
Neck              Spine4
Head              Neck
LClavicle         Spine4
LUpperArm         LClavicle
LLowerArm         LUpperArm
LHand             LLowerArm
RClavicle         Spine4
RUpperArm         RClavicle
RLowerArm         RUpperArm
RHand             RLowerArm
RUpperLeg         DaveRoot
RLowerLeg         RUpperLeg
RFoot             RLowerLeg
RToes             RFoot
LUpperLeg         DaveRoot
LLowerLeg         LUpperLeg
LFoot             LLowerLeg
LToes             LFoot
[BasePosition]
#SegmentName      Tx   Ty   Tz   Rx   Ry   Rz   BoneLength
DaveRoot          209.518790	1014.822220	-351.309218	15.931515	2.618173	-0.612188	100.000000
Spine1            0.000000	100.000000	0.000000	-16.793488	0.293500	-0.473802	100.000000
Spine2            0.000000	100.000000	0.000000	4.672625	0.349043	-0.357343	100.000000
Spine3            0.000000	100.000000	0.000000	10.998894	0.386292	-0.316706	100.000000
Spine4            0.000000	100.000000	0.000000	12.138707	1.462162	1.217268	100.000000
Neck              0.000000	100.000000	0.000000	12.810480	14.955418	1.620949	80.000000
Head              0.000000	80.000000	0.000000	-44.031424	-2.973179	-2.367844	200.000000
LClavicle         0.000000	100.000000	0.000000	-0.941684	-2.086145	-99.536471	200.000000
LUpperArm         0.000000	200.000000	0.000000	10.837043	12.737179	14.309854	300.000000
LLowerArm         0.000000	300.000000	0.000000	2.090205	2.175812	1.895763	200.000000
LHand             0.000000	200.000000	0.000000	-1.396534	-1.768569	8.793625	120.000000
RClavicle         0.000000	100.000000	0.000000	1.262055	-3.879913	108.124298	200.000000
RUpperArm         0.000000	200.000000	0.000000	10.866823	4.985308	-18.992585	300.000000
RLowerArm         0.000000	300.000000	0.000000	5.968673	-3.682026	-7.348670	200.000000
RHand             0.000000	200.000000	0.000000	-1.057110	-1.690862	-7.465634	120.000000
RUpperLeg         -115.911102	-10.000000	31.058285	24.909801	27.531946	-169.439912	530.000000
RLowerLeg         0.000000	530.000000	0.000000	-7.321572	0.479387	-2.520024	460.000000
RFoot             0.000000	460.000000	0.000000	82.352420	-1.863170	1.930421	130.000000
RToes             0.000000	130.000000	0.000000	17.737744	0.005479	-0.002881	100.000000
LUpperLeg         115.911102	-10.000000	31.058285	23.717246	9.590578	-171.144790	530.000000
LLowerLeg         0.000000	530.000000	0.000000	-5.150575	-3.275937	3.046484	460.000000
LFoot             0.000000	460.000000	0.000000	77.933010	-13.262104	9.769004	130.000000
LToes             0.000000	130.000000	0.000000	27.000770	-0.000000	-0.000086	100.000000
#Beginning of Data.
[DaveRoot]
#Fr	Tx	Ty	Tz	Rx	Ry	Rz	SF
538	1362.876683	36.539645	452.821271	-131.584514	-58.956807	155.971287	1.000000	
539	1364.577877	36.510101	453.651807	-132.155937	-58.512532	156.112159	1.000000	
540	1366.449817	35.993277	454.655237	-132.220503	-57.960111	156.407572	1.000000	
541	1368.121029	35.898736	455.361713	-132.794608	-57.529069	156.600053	1.000000	
[Spine1]
#Fr	Tx	Ty	Tz	Rx	Ry	Rz	SF
538	0.000000	0.000000	0.000000	1.471865	-0.331787	-2.486292	1.000000	
539	0.000000	0.000000	0.000000	2.206848	-0.477539	-2.579668	1.000000	
540	0.000000	0.000000	0.000000	1.367249	-0.242457	-2.599727	1.000000	
541	0.000000	0.000000	0.000000	2.088467	-0.372227	-2.673908	1.000000	
[Spine2]
#Fr	Tx	Ty	Tz	Rx	Ry	Rz	SF
538	0.000000	0.000000	0.000000	1.471865	-0.331787	-2.486292	1.000000	
539	0.000000	0.000000	0.000000	2.206848	-0.477539	-2.579668	1.000000	
540	0.000000	0.000000	0.000000	1.367249	-0.242457	-2.599727	1.000000	
541	0.000000	0.000000	0.000000	2.088467	-0.372227	-2.673908	1.000000	
[Spine3]
#Fr	Tx	Ty	Tz	Rx	Ry	Rz	SF
538	0.000000	0.000000	0.000000	1.471865	-0.331787	-2.486292	1.000000	
539	0.000000	0.000000	0.000000	2.206848	-0.477539	-2.579668	1.000000	
540	0.000000	0.000000	0.000000	1.367249	-0.242457	-2.599727	1.000000	
541	0.000000	0.000000	0.000000	2.088467	-0.372227	-2.673908	1.000000	
[Spine4]
#Fr	Tx	Ty	Tz	Rx	Ry	Rz	SF
538	0.000000	0.000000	0.000000	1.471865	-0.331787	-2.486292	1.000000	
539	0.000000	0.000000	0.000000	2.206848	-0.477539	-2.579668	1.000000	
540	0.000000	0.000000	0.000000	1.367249	-0.242457	-2.599727	1.000000	
541	0.000000	0.000000	0.000000	2.088467	-0.372227	-2.673908	1.000000	
[Neck]
#Fr	Tx	Ty	Tz	Rx	Ry	Rz	SF
538	0.000000	0.000000	0.000000	-0.945958	-2.072436	3.190626	1.000000	
539	0.000000	0.000000	0.000000	-3.879697	-1.669159	2.402965	1.000000	
540	0.000000	0.000000	0.000000	-0.650679	-1.966205	3.231968	1.000000	
541	0.000000	0.000000	0.000000	-3.607493	-1.601126	2.451786	1.000000	
[Head]
#Fr	Tx	Ty	Tz	Rx	Ry	Rz	SF
538	0.000000	0.000000	0.000000	-0.945958	-2.072436	3.190626	1.000000	
539	0.000000	0.000000	0.000000	-3.879697	-1.669159	2.402965	1.000000	
540	0.000000	0.000000	0.000000	-0.650679	-1.966205	3.231968	1.000000	
541	0.000000	0.000000	0.000000	-3.607493	-1.601126	2.451786	1.000000	
[LClavicle]
#Fr	Tx	Ty	Tz	Rx	Ry	Rz	SF
538	0.000000	0.000000	0.000000	10.460290	0.010591	-4.975221	1.000000	
539	0.000000	0.000000	0.000000	2.074406	0.055821	-6.458596	1.000000	
540	0.000000	0.000000	0.000000	10.447585	0.039873	-5.134091	1.000000	
541	0.000000	0.000000	0.000000	1.996977	0.058303	-6.589492	1.000000	
[LUpperArm]
#Fr	Tx	Ty	Tz	Rx	Ry	Rz	SF
538	0.000000	0.000000	0.000000	31.657879	18.368630	-28.412485	1.000000	
539	0.000000	0.000000	0.000000	49.800435	14.881183	-22.771020	1.000000	
540	0.000000	0.000000	0.000000	31.525651	18.962440	-28.221333	1.000000	
541	0.000000	0.000000	0.000000	50.069837	15.970097	-22.023786	1.000000	
[LLowerArm]
#Fr	Tx	Ty	Tz	Rx	Ry	Rz	SF
538	0.000000	0.000000	0.000000	19.708195	-0.000000	0.000000	1.000000	
539	0.000000	0.000000	0.000000	-5.066684	-0.000000	0.000000	1.000000	
540	0.000000	0.000000	0.000000	19.015247	-0.000000	0.000000	1.000000	
541	0.000000	0.000000	0.000000	-6.224570	-0.000000	0.000000	1.000000	
[LHand]
#Fr	Tx	Ty	Tz	Rx	Ry	Rz	SF
538	0.000000	0.000000	0.000000	5.889010	0.000000	-0.000000	1.000000	
539	0.000000	0.000000	0.000000	21.853230	0.000000	-0.000000	1.000000	
540	0.000000	0.000000	0.000000	5.783019	0.000000	-0.000000	1.000000	
541	0.000000	0.000000	0.000000	22.112949	0.000000	-0.000000	1.000000	
[RClavicle]
#Fr	Tx	Ty	Tz	Rx	Ry	Rz	SF
538	0.000000	0.000000	0.000000	6.125025	-0.606026	5.303838	1.000000	
539	0.000000	0.000000	0.000000	2.652811	-0.315543	6.453171	1.000000	
540	0.000000	0.000000	0.000000	6.307104	-0.650907	5.543160	1.000000	
541	0.000000	0.000000	0.000000	2.780020	-0.341695	6.676389	1.000000	
[RUpperArm]
#Fr	Tx	Ty	Tz	Rx	Ry	Rz	SF
538	0.000000	0.000000	0.000000	11.933891	-11.302056	66.729992	1.000000	
539	0.000000	0.000000	0.000000	23.140454	-24.477352	57.675878	1.000000	
540	0.000000	0.000000	0.000000	11.597560	-10.958535	66.609310	1.000000	
541	0.000000	0.000000	0.000000	22.583562	-23.788558	57.912045	1.000000	
[RLowerArm]
#Fr	Tx	Ty	Tz	Rx	Ry	Rz	SF
538	0.000000	0.000000	0.000000	24.694862	-0.000000	-0.000000	1.000000	
539	0.000000	0.000000	0.000000	7.916867	-0.000000	-0.000000	1.000000	
540	0.000000	0.000000	0.000000	24.741792	-0.000000	-0.000000	1.000000	
541	0.000000	0.000000	0.000000	8.303548	-0.000000	-0.000000	1.000000	
[RHand]
#Fr	Tx	Ty	Tz	Rx	Ry	Rz	SF
538	0.000000	0.000000	0.000000	-2.951034	-0.999195	4.607117	1.000000	
539	0.000000	0.000000	0.000000	17.493815	4.011146	0.947266	1.000000	
540	0.000000	0.000000	0.000000	-2.592043	-0.845812	4.547867	1.000000	
541	0.000000	0.000000	0.000000	17.483213	3.939226	1.038631	1.000000	
[RUpperLeg]
#Fr	Tx	Ty	Tz	Rx	Ry	Rz	SF
538	0.000000	0.000000	0.000000	11.214376	-15.034538	-0.211913	1.000000	
539	0.000000	0.000000	0.000000	10.543155	-14.964399	-0.673532	1.000000	
540	0.000000	0.000000	0.000000	10.573727	-14.911604	-0.941126	1.000000	
541	0.000000	0.000000	0.000000	9.884729	-14.691916	-1.343134	1.000000	
[RLowerLeg]
#Fr	Tx	Ty	Tz	Rx	Ry	Rz	SF
538	0.000000	0.000000	0.000000	-21.446992	0.000000	-0.000000	1.000000	
539	0.000000	0.000000	0.000000	-22.330733	-0.000000	-0.000000	1.000000	
540	0.000000	0.000000	0.000000	-23.370244	0.000000	-0.000000	1.000000	
541	0.000000	0.000000	0.000000	-24.105674	-0.000000	-0.000000	1.000000	
[RFoot]
#Fr	Tx	Ty	Tz	Rx	Ry	Rz	SF
538	0.000000	0.000000	0.000000	3.878764	-3.362578	-10.725527	1.000000	
539	0.000000	0.000000	0.000000	4.621067	-2.766476	-11.603757	1.000000	
540	0.000000	0.000000	0.000000	5.490571	-2.034632	-12.434894	1.000000	
541	0.000000	0.000000	0.000000	6.245405	-1.120869	-13.186990	1.000000	
[RToes]
#Fr	Tx	Ty	Tz	Rx	Ry	Rz	SF
538	0.000000	0.000000	0.000000	4.533725	-0.000000	0.000000	1.000000	
539	0.000000	0.000000	0.000000	4.248554	0.000000	0.000000	1.000000	
540	0.000000	0.000000	0.000000	3.914746	0.000000	0.000000	1.000000	
541	0.000000	0.000000	0.000000	3.375506	0.000000	0.000000	1.000000	
[LUpperLeg]
#Fr	Tx	Ty	Tz	Rx	Ry	Rz	SF
538	0.000000	0.000000	0.000000	-0.342512	-3.236532	-6.207497	1.000000	
539	0.000000	0.000000	0.000000	-0.980003	-2.982442	-6.476416	1.000000	
540	0.000000	0.000000	0.000000	-0.859398	-2.938377	-6.602829	1.000000	
541	0.000000	0.000000	0.000000	-1.399743	-2.770549	-6.812140	1.000000	
[LLowerLeg]
#Fr	Tx	Ty	Tz	Rx	Ry	Rz	SF
538	0.000000	0.000000	0.000000	-6.761828	-0.000000	-0.000000	1.000000	
539	0.000000	0.000000	0.000000	-6.188814	0.000000	0.000000	1.000000	
540	0.000000	0.000000	0.000000	-5.879794	0.000000	0.000000	1.000000	
541	0.000000	0.000000	0.000000	-5.469211	0.000000	0.000000	1.000000	
[LFoot]
#Fr	Tx	Ty	Tz	Rx	Ry	Rz	SF
538	0.000000	0.000000	0.000000	7.877233	10.634916	6.475552	1.000000	
539	0.000000	0.000000	0.000000	7.508733	10.424447	6.994295	1.000000	
540	0.000000	0.000000	0.000000	7.303249	10.851312	7.726335	1.000000	
541	0.000000	0.000000	0.000000	7.044468	10.735092	8.247247	1.000000	
[LToes]
#Fr	Tx	Ty	Tz	Rx	Ry	Rz	SF
538	0.000000	0.000000	0.000000	2.550416	-0.000000	-0.000000	1.000000	
539	0.000000	0.000000	0.000000	2.518868	-0.000000	-0.000000	1.000000	
540	0.000000	0.000000	0.000000	3.116068	-0.000000	-0.000000	1.000000	
541	0.000000	0.000000	0.000000	3.232033	-0.000000	-0.000000	1.000000	
